/* XPM */
static char *_73c6e43e0e6461399b3c6c0eb5d04cd[] = {
/* columns rows colors chars-per-pixel */
"75 75 2 1 ",
"  c None",
". c black",
/* pixels */
"                                                                           ",
"                                                                           ",
"                                                                           ",
"                                                                           ",
"                                                                           ",
"                                                                           ",
"                                                                           ",
"                                                                           ",
"                                                                           ",
"                                                                           ",
"                                                                           ",
"                                                                           ",
"                                                                           ",
"                                                                           ",
"                                   ...                                     ",
"                                  .....                                    ",
"                                 .......                                   ",
"                                .........                                  ",
"                               .........                                   ",
"                              .........                                    ",
"                             .........                                     ",
"                            .........                                      ",
"                           .........                                       ",
"                          .........                                        ",
"                         .........                                         ",
"                        .........                                          ",
"                       .........                                           ",
"                      .........                                            ",
"                     .........                                             ",
"                    .........                                              ",
"                   .........                                               ",
"                  .........                                                ",
"                 .........                                                 ",
"                .........                                                  ",
"               ...............................................             ",
"              .................................................            ",
"             ..................................................            ",
"             ..................................................            ",
"              .................................................            ",
"               ................................................            ",
"               ...............................................             ",
"                 ........                                                  ",
"                  ........                                                 ",
"                   ........                                                ",
"                    ........                                               ",
"                     ........                                              ",
"                      ........                                             ",
"                       ........                                            ",
"                        ........                                           ",
"                         ........                                          ",
"                          ........                                         ",
"                           ........                                        ",
"                            ........                                       ",
"                             ........                                      ",
"                              ........                                     ",
"                               ........                                    ",
"                                ........                                   ",
"                                .........                                  ",
"                                  ......                                   ",
"                                   ....                                    ",
"                                    ..                                     ",
"                                                                           ",
"                                                                           ",
"                                                                           ",
"                                                                           ",
"                                                                           ",
"                                                                           ",
"                                                                           ",
"                                                                           ",
"                                                                           ",
"                                                                           ",
"                                                                           ",
"                                                                           ",
"                                                                           ",
"                                                                           "
};
